<svg width="20" height="19" viewBox="0 0 20 19" fill="none" xmlns="http://www.w3.org/2000/svg">
<path d="M7.3974 17.2699C7.81653 17.2699 8.1563 16.9302 8.1563 16.511C8.1563 16.0919 7.81653 15.7521 7.3974 15.7521C6.97826 15.7521 6.63849 16.0919 6.63849 16.511C6.63849 16.9302 6.97826 17.2699 7.3974 17.2699Z" stroke="#197BBD" stroke-width="2" stroke-linecap="round" stroke-linejoin="round"/>
<path d="M15.744 17.2699C16.1632 17.2699 16.5029 16.9302 16.5029 16.511C16.5029 16.0919 16.1632 15.7521 15.744 15.7521C15.3249 15.7521 14.9851 16.0919 14.9851 16.511C14.9851 16.9302 15.3249 17.2699 15.744 17.2699Z" stroke="#197BBD" stroke-width="2" stroke-linecap="round" stroke-linejoin="round"/>
<path d="M1.32416 1.3327H4.35978L6.39365 11.4945C6.46305 11.8439 6.65313 12.1577 6.93062 12.3811C7.2081 12.6045 7.55531 12.7231 7.91147 12.7163H15.288C15.6442 12.7231 15.9914 12.6045 16.2689 12.3811C16.5464 12.1577 16.7365 11.8439 16.8059 11.4945L18.0201 5.12724H5.11869" stroke="#197BBD" stroke-width="2" stroke-linecap="round" stroke-linejoin="round"/>
</svg>


