<svg width="23" height="20" viewBox="0 0 23 20" fill="none" xmlns="http://www.w3.org/2000/svg">
<path d="M12.8544 1.90309H3.28412C2.17955 1.90309 1.28412 2.79852 1.28412 3.90309V11.664C1.28412 12.7686 2.17955 13.664 3.28412 13.664H12.8544C13.959 13.664 14.8544 12.7686 14.8544 11.664V3.90309C14.8544 2.79852 13.959 1.90309 12.8544 1.90309Z" stroke="#197BBD" stroke-width="2" stroke-linecap="round" stroke-linejoin="round"/>
<path d="M14.8535 8.42751C14.8535 7.32294 15.7489 6.42751 16.8535 6.42751H17.6438C18.1742 6.42751 18.6829 6.63822 19.058 7.01329L20.6005 8.55579C20.9756 8.93086 21.1863 9.43957 21.1863 9.97V11.665C21.1863 12.7696 20.2908 13.665 19.1863 13.665H16.8535C15.7489 13.665 14.8535 12.7696 14.8535 11.665V8.42751Z" stroke="#197BBD" stroke-width="2" stroke-linecap="round" stroke-linejoin="round"/>
<path d="M5.35541 18.1863C6.60453 18.1863 7.61713 17.1737 7.61713 15.9246C7.61713 14.6755 6.60453 13.6629 5.35541 13.6629C4.1063 13.6629 3.09369 14.6755 3.09369 15.9246C3.09369 17.1737 4.1063 18.1863 5.35541 18.1863Z" stroke="#197BBD" stroke-width="2" stroke-linecap="round" stroke-linejoin="round"/>
<path d="M17.1152 18.1863C18.3643 18.1863 19.3769 17.1737 19.3769 15.9246C19.3769 14.6755 18.3643 13.6629 17.1152 13.6629C15.8661 13.6629 14.8535 14.6755 14.8535 15.9246C14.8535 17.1737 15.8661 18.1863 17.1152 18.1863Z" stroke="#197BBD" stroke-width="2" stroke-linecap="round" stroke-linejoin="round"/>
</svg>

