<svg version="1.1" id="Layer_1" xmlns="http://www.w3.org/2000/svg" xmlns:xlink="http://www.w3.org/1999/xlink" x="0px" y="0px" width="12" height="20"
	 viewBox="0 0 10 12.3" style="enable-background:new 0 0 10 12.3;" xml:space="preserve">
<style type="text/css">
	.st0{fill:#404040;}
</style>
<g>
	<path class="st0" d="M9,1.5H6.9V1.2C6.9,0.5,6.4,0,5.8,0H4.2C3.6,0,3.1,0.5,3.1,1.2v0.4H1c-0.5,0-1,0.4-1,1v1.3
		c0,0.2,0.2,0.4,0.4,0.4h0.2l0.3,7c0,0.6,0.5,1.1,1.2,1.1h5.8c0.6,0,1.1-0.5,1.2-1.1l0.3-7h0.2c0.2,0,0.4-0.2,0.4-0.4V2.5
		C10,2,9.6,1.5,9,1.5z M3.8,1.2c0-0.2,0.2-0.4,0.4-0.4h1.5c0.2,0,0.4,0.2,0.4,0.4v0.4H3.8V1.2z M0.8,2.5c0-0.1,0.1-0.2,0.2-0.2H9
		c0.1,0,0.2,0.1,0.2,0.2v1c-0.1,0-8,0-8.5,0V2.5z M8.3,11.2c0,0.2-0.2,0.4-0.4,0.4H2.1c-0.2,0-0.4-0.2-0.4-0.4L1.4,4.2h7.3L8.3,11.2
		z"/>
	<path class="st0" d="M5,10.8c0.2,0,0.4-0.2,0.4-0.4v-5C5.4,5.2,5.2,5,5,5S4.6,5.2,4.6,5.4v5C4.6,10.6,4.8,10.8,5,10.8z"/>
	<path class="st0" d="M6.9,10.8c0.2,0,0.4-0.2,0.4-0.4v-5C7.3,5.2,7.1,5,6.9,5S6.5,5.2,6.5,5.4v5C6.5,10.6,6.7,10.8,6.9,10.8z"/>
	<path class="st0" d="M3.1,10.8c0.2,0,0.4-0.2,0.4-0.4v-5C3.5,5.2,3.3,5,3.1,5C2.9,5,2.7,5.2,2.7,5.4v5C2.7,10.6,2.9,10.8,3.1,10.8z
		"/>
</g>
</svg>
