<svg width="25" height="25" viewBox="0 0 25 25" fill="none" xmlns="http://www.w3.org/2000/svg">
<path d="M12.4603 11.3371L6.95129 16.8471L5.08129 16.0701L4.91429 16.2391L7.29429 17.8261L8.88229 20.2061L9.05029 20.0381L8.27429 18.1681L13.7833 12.6601L18.1113 18.9121L18.3213 18.7041L15.4343 11.0081L19.8343 6.61008C20.0004 6.43278 20.091 6.19783 20.0871 5.9549C20.0831 5.71198 19.9849 5.48011 19.8131 5.30831C19.6413 5.13652 19.4094 5.03825 19.1665 5.03429C18.9235 5.03033 18.6886 5.12098 18.5113 5.28708L14.1113 9.68608L6.41729 6.80008L6.20729 7.00908L12.4603 11.3371ZM17.8503 21.8201L13.5203 15.5671L10.4803 18.6071L11.2573 20.4771L8.59129 23.1421L5.94629 19.1751L1.97829 16.5291L4.64429 13.8631L6.51329 14.6391L9.55329 11.5991L3.30029 7.27108L5.94629 4.62608L13.6413 7.51108L17.1883 3.96408C17.4477 3.69841 17.7572 3.48686 18.099 3.3417C18.4408 3.19654 18.8079 3.12065 19.1792 3.11843C19.5505 3.11621 19.9186 3.18771 20.2621 3.32878C20.6055 3.46984 20.9176 3.67768 21.1801 3.94024C21.4427 4.20279 21.6505 4.51485 21.7916 4.85832C21.9327 5.20179 22.0042 5.56984 22.0019 5.94114C21.9997 6.31244 21.9238 6.67962 21.7787 7.02137C21.6335 7.36313 21.422 7.67268 21.1563 7.93208L17.6093 11.4791L20.4953 19.1751L17.8493 21.8201H17.8503Z" fill="#197BBD"/>
</svg>

